<?xml version="1.0" encoding="UTF-8" standalone="no"?>
<svg
   xmlns:dc="http://purl.org/dc/elements/1.1/"
   xmlns:cc="http://creativecommons.org/ns#"
   xmlns:rdf="http://www.w3.org/1999/02/22-rdf-syntax-ns#"
   xmlns:svg="http://www.w3.org/2000/svg"
   xmlns="http://www.w3.org/2000/svg"
   xmlns:sodipodi="http://sodipodi.sourceforge.net/DTD/sodipodi-0.dtd"
   xmlns:inkscape="http://www.inkscape.org/namespaces/inkscape"
   viewBox="0 0 348 348"
   fill="none"
   version="1.1"
   id="svg6"
   sodipodi:docname="Two Persuasive Buttons.svg"
   inkscape:version="1.0.1 (3bc2e813f5, 2020-09-07)">
  <metadata
     id="metadata12">
    <rdf:RDF>
      <cc:Work
         rdf:about="">
        <dc:format>image/svg+xml</dc:format>
        <dc:type
           rdf:resource="http://purl.org/dc/dcmitype/StillImage" />
      </cc:Work>
    </rdf:RDF>
  </metadata>
  <defs
     id="defs10" />
  <sodipodi:namedview
     pagecolor="#ffffff"
     bordercolor="#666666"
     borderopacity="1"
     objecttolerance="10"
     gridtolerance="10"
     guidetolerance="10"
     inkscape:pageopacity="0"
     inkscape:pageshadow="2"
     inkscape:window-width="1366"
     inkscape:window-height="705"
     id="namedview8"
     showgrid="false"
     inkscape:zoom="1.545977"
     inkscape:cx="174"
     inkscape:cy="174"
     inkscape:window-x="-8"
     inkscape:window-y="-8"
     inkscape:window-maximized="1"
     inkscape:current-layer="svg6" />
  <path
     d="M5.079 5.776h336.913v337.67H5.08z"
     stroke-width="2"
     stroke="#000"
     id="path2" />
  <path
     d="M282.734 40.554c0-8.376 6.966-15.165 15.56-15.165 4.126 0 8.084 1.597 11.001 4.441 2.918 2.844 4.558 6.702 4.558 10.724 0 8.376-6.966 15.165-15.56 15.165-8.593 0-15.559-6.79-15.559-15.165z"
     stroke-width="2"
     stroke="#000"
     id="path4" />
  <path
     id="path16-9"
     style="fill:#000000"
     inkscape:transform-center-x="-0.61959276"
     inkscape:transform-center-y="-1.6060158"
     transform="rotate(-28.165635,254.9557,-112.93063)"
     d="M 173.35316,161.0632 C 142.9828,218.76689 156.02341,214.71981 98.319708,184.34944 40.616012,153.97907 44.663097,167.01968 75.033464,109.31599 105.40383,51.612289 92.363222,55.659374 150.06692,86.029741 c 57.7037,30.370369 53.65661,17.329759 23.28624,75.033459 z" />
  <path
     id="path16"
     style="fill:#000000"
     inkscape:transform-center-x="-0.61959276"
     inkscape:transform-center-y="-1.6060158"
     transform="rotate(-28.165635,178.94308,200.99801)"
     d="M 173.35316,161.0632 C 142.9828,218.76689 156.02341,214.71981 98.319708,184.34944 40.616012,153.97907 44.663097,167.01968 75.033464,109.31599 105.40383,51.612289 92.363222,55.659374 150.06692,86.029741 c 57.7037,30.370369 53.65661,17.329759 23.28624,75.033459 z" />
  <g
     aria-label="TOUCH ME"
     id="text50"
     style="font-size:16.0293px;line-height:1.25;font-family:'Segoe Script';-inkscape-font-specification:'Segoe Script';text-align:center;text-anchor:middle;fill:#ffffff;stroke-width:0.40073">
    <path
       d="m 62.032633,163.74603 q 0,0.12523 -0.07827,0.25046 -0.07044,0.12523 -0.180016,0.23481 -0.109575,0.10957 -0.242631,0.19567 -0.125229,0.0861 -0.242631,0.12523 -0.430475,0.1487 -0.884429,0.2348 -0.446128,0.0783 -0.986178,0.14871 -0.532223,0.0626 -1.181848,0.14871 -0.641798,0.0861 -1.463613,0.24263 -0.07827,0.3209 -0.140882,0.6731 -0.06262,0.34438 -0.125229,0.70442 -0.05479,0.3522 -0.109576,0.70441 -0.04696,0.35221 -0.101748,0.68093 -0.07827,0.44613 -0.156536,0.95487 -0.07044,0.50092 -0.133056,1.00183 -0.06261,0.49309 -0.101748,0.94705 -0.03913,0.45395 -0.03913,0.78268 0,0.3522 0.01565,0.70441 0.01565,0.35221 0.01565,0.70441 0,0.39917 -0.04696,0.77486 -0.03913,0.37568 -0.148709,0.76702 -0.156537,0.0391 -0.313073,0.0548 -0.156536,0.0235 -0.320899,0.0235 -0.39134,0 -0.633971,-0.17219 -0.234804,-0.17219 -0.234804,-0.57918 0,-0.54005 0.07827,-1.08793 0.07827,-0.54787 0.164363,-1.0801 0.156536,-1.08792 0.352206,-2.19933 0.203497,-1.11923 0.352206,-2.20716 0.06262,-0.4383 0.109576,-0.91574 0.04696,-0.47743 0.109575,-0.91573 -0.461782,0.0156 -0.978351,0.0548 -0.516569,0.0313 -1.048792,0.0704 -0.524396,0.0391 -1.040965,0.0704 -0.508743,0.0313 -0.954871,0.0313 -0.743547,0 -1.158367,-0.17219 -0.406994,-0.18002 -0.406994,-0.63398 0,-0.0704 0.05479,-0.20349 0.06262,-0.14089 0.14871,-0.27394 0.0861,-0.13306 0.19567,-0.22698 0.109575,-0.10175 0.21915,-0.10175 0.219151,0 0.422648,0.0939 0.203497,0.0861 0.422648,0.14089 0.109575,0.0313 0.21915,0.0391 0.117402,0.008 0.242631,0.008 0.164363,0 0.36786,-0.008 0.211324,-0.008 0.508743,-0.008 0.21915,0 0.547876,-0.0235 0.336553,-0.0313 0.720066,-0.0704 0.383514,-0.0391 0.790508,-0.0861 0.414821,-0.0548 0.782681,-0.10175 0.367859,-0.047 0.665278,-0.0861 0.305246,-0.0391 0.477435,-0.0626 1.025312,-0.13306 1.972356,-0.30525 0.947043,-0.17218 1.761031,-0.32872 0.360033,-0.0626 0.618318,-0.15654 0.258285,-0.0939 0.485262,-0.15653 0.148709,0 0.266112,0.0235 0.125228,0.0156 0.203497,0.0861 0.07827,0.0626 0.117402,0.18002 0.04696,0.1174 0.04696,0.30524 z"
       style="text-align:center;text-anchor:middle;stroke-width:0.40073"
       id="path85" />
    <path
       d="m 73.483252,166.45411 q 0,0.8766 -0.211324,1.67494 -0.211323,0.7905 -0.58701,1.49492 -0.36786,0.70441 -0.868776,1.32273 -0.493089,0.61831 -1.064445,1.15054 -0.571357,0.52439 -1.189675,0.97052 -0.618318,0.4383 -1.220982,0.78268 -0.203497,0.1174 -0.477435,0.24263 -0.266112,0.12523 -0.571357,0.24263 -0.297419,0.11741 -0.626145,0.22698 -0.328726,0.10958 -0.641798,0.18784 -0.305245,0.0783 -0.594837,0.12523 -0.281765,0.047 -0.508743,0.047 -0.649625,0 -1.181848,-0.29741 -0.524396,-0.2896 -0.900082,-0.79051 -0.36786,-0.50092 -0.571357,-1.1662 -0.19567,-0.66527 -0.19567,-1.40099 0,-0.39134 0.03913,-0.7279 0.04696,-0.33655 0.125229,-0.64962 0.07827,-0.3209 0.187843,-0.6418 0.117402,-0.3209 0.266111,-0.67311 0.17219,-0.42264 0.461782,-0.89225 0.289592,-0.46961 0.649625,-0.93922 0.360033,-0.47743 0.774854,-0.92356 0.422647,-0.45396 0.845295,-0.8453 0.430474,-0.39916 0.845295,-0.71224 0.422648,-0.31307 0.790508,-0.50091 0.305245,-0.15654 0.610491,-0.25829 0.313072,-0.10175 0.540049,-0.10175 0.0078,0 0.06262,-0.0235 0.05479,-0.0235 0.117402,-0.047 0.06261,-0.0313 0.109575,-0.0548 0.05479,-0.0235 0.07044,-0.0235 0.117402,-0.16437 0.289592,-0.27394 0.180017,-0.11741 0.375687,-0.18002 0.203497,-0.0704 0.406994,-0.0939 0.211324,-0.0313 0.399167,-0.0313 0.500916,0 0.962697,0.16436 0.469609,0.15654 0.868776,0.46179 0.406994,0.29741 0.727893,0.72789 0.328726,0.42265 0.555703,0.95487 0.14871,0.34438 0.234804,0.71224 0.09392,0.36003 0.09392,0.7592 z m -3.404661,-2.4811 q -0.117402,0 -0.19567,0.0704 -0.07044,0.0626 -0.125229,0.15654 -0.05479,0.0939 -0.101748,0.2035 -0.04696,0.10174 -0.109576,0.18001 -0.07827,0.2035 -0.258284,0.37569 -0.180017,0.16436 -0.383514,0.16436 -0.156536,0 -0.242631,-0.0313 -0.0861,-0.0313 -0.164363,-0.0704 -0.07044,-0.047 -0.164363,-0.0783 -0.09392,-0.0313 -0.258284,-0.0313 -0.34438,0 -0.767028,0.22698 -0.41482,0.22697 -0.853122,0.60266 -0.430474,0.36786 -0.853121,0.83747 -0.422648,0.46961 -0.790508,0.95487 -0.360033,0.47743 -0.633971,0.93139 -0.273939,0.45395 -0.406994,0.79051 -0.17219,0.45395 -0.289592,0.94704 -0.117402,0.48526 -0.117402,0.98618 0,0.39916 0.140882,0.79833 0.14871,0.39917 0.391341,0.71224 0.250457,0.31307 0.571357,0.50874 0.320899,0.19567 0.673105,0.19567 0.493089,0 1.056619,-0.14871 0.571357,-0.15653 1.158367,-0.42264 0.594838,-0.26611 1.181848,-0.62615 0.587011,-0.36786 1.111407,-0.78268 0.532223,-0.41482 0.978351,-0.86877 0.446128,-0.45396 0.751373,-0.90791 0.125229,-0.18785 0.289592,-0.54005 0.164363,-0.36004 0.313072,-0.7592 0.14871,-0.407 0.250458,-0.79051 0.101749,-0.38351 0.101749,-0.61832 0,-0.52439 -0.17219,-1.05662 -0.17219,-0.53222 -0.477435,-0.95487 -0.297419,-0.42265 -0.71224,-0.68876 -0.414821,-0.26611 -0.892256,-0.26611 z"
       style="text-align:center;text-anchor:middle;stroke-width:0.40073"
       id="path87" />
    <path
       d="m 84.988658,170.75103 q -0.0861,0.46178 -0.250458,0.8766 -0.156536,0.40699 -0.406994,0.79833 -0.250457,0.38352 -0.602664,0.75138 -0.352206,0.36003 -0.821814,0.71224 -0.234805,0.18001 -0.618318,0.33655 -0.375687,0.14871 -0.806161,0.25828 -0.422648,0.10175 -0.860949,0.15654 -0.438301,0.0626 -0.798334,0.0626 -0.328726,0 -0.759201,-0.0939 -0.422647,-0.0939 -0.845295,-0.24263 -0.414821,-0.15654 -0.782681,-0.34438 -0.360033,-0.18784 -0.555703,-0.36786 -0.39134,-0.36786 -0.673105,-0.82964 -0.273938,-0.46178 -0.453955,-0.97835 -0.180017,-0.51657 -0.266111,-1.05662 -0.07827,-0.54788 -0.07827,-1.0801 0,-0.44613 0.07044,-0.98618 0.07044,-0.54787 0.172189,-1.10358 0.101749,-0.56353 0.203497,-1.10358 0.109576,-0.54787 0.17219,-0.994 0.02348,-0.14088 0.07044,-0.46178 0.05479,-0.32873 0.109576,-0.68093 0.06261,-0.36004 0.117402,-0.68094 0.06261,-0.32872 0.101748,-0.46961 0.09392,-0.31307 0.305246,-0.51656 0.211324,-0.2035 0.493089,-0.2035 0.109575,0 0.21915,0.1174 0.109576,0.1174 0.19567,0.27394 0.0861,0.15653 0.140883,0.31307 0.05479,0.15654 0.05479,0.24263 0,0.047 -0.03913,0.2035 -0.03131,0.14871 -0.0861,0.35221 -0.05479,0.20349 -0.117402,0.43047 -0.06261,0.22698 -0.125229,0.43047 -0.05479,0.2035 -0.09392,0.35221 -0.03913,0.14088 -0.04696,0.18784 -0.03131,0.17219 -0.08609,0.49309 -0.04696,0.3209 -0.109575,0.72007 -0.06261,0.39917 -0.125229,0.83747 -0.06261,0.43047 -0.117402,0.84529 -0.04696,0.407 -0.07827,0.7592 -0.03131,0.34438 -0.03131,0.55571 0,1.20532 0.430474,2.26194 0.109575,0.26611 0.414821,0.54005 0.313072,0.26611 0.696586,0.48526 0.383513,0.21133 0.767027,0.34438 0.383513,0.13306 0.633971,0.13306 0.665279,0 1.197502,-0.0548 0.540049,-0.0626 0.970524,-0.2348 0.430474,-0.18002 0.751373,-0.49309 0.328726,-0.31307 0.579184,-0.82182 0.19567,-0.40699 0.297418,-0.81398 0.109576,-0.407 0.164363,-0.79834 0.05479,-0.39134 0.07827,-0.7592 0.02348,-0.37568 0.06261,-0.70441 0.07044,-0.60266 0.101748,-1.22881 0.03131,-0.63397 0.06262,-1.22881 0.03131,-0.60266 0.0861,-1.13488 0.05479,-0.53223 0.164363,-0.94705 0.172189,-0.6418 0.383513,-0.90008 0.203497,-0.27394 0.571357,-0.27394 0.156536,0 0.258285,0.0704 0.101748,0.0704 0.164363,0.19567 0.06261,0.1174 0.0861,0.27394 0.02348,0.15654 0.02348,0.32873 0,0.30524 -0.05479,0.72789 -0.04696,0.41482 -0.117402,0.85312 -0.06261,0.43048 -0.140882,0.83747 -0.07044,0.39917 -0.117402,0.66528 -0.06261,0.38351 -0.07827,0.81399 -0.0078,0.42264 -0.02348,0.90008 -0.01565,0.46961 -0.05479,0.994 -0.03914,0.5244 -0.14871,1.09576 z"
       style="text-align:center;text-anchor:middle;stroke-width:0.40073"
       id="path89" />
    <path
       d="m 96.948018,164.40349 q 0,0.13305 0,0.34438 0.0078,0.21132 0,0.4383 -0.0078,0.22697 -0.03913,0.43047 -0.03131,0.2035 -0.109575,0.3209 -0.07827,0.1174 -0.19567,0.2348 -0.117402,0.11741 -0.250458,0.21133 -0.133056,0.0939 -0.266112,0.14871 -0.125228,0.0548 -0.226977,0.0548 -0.109575,0 -0.203497,-0.0626 -0.09392,-0.0626 -0.156536,-0.17219 -0.05479,-0.1174 -0.07044,-0.27394 -0.0078,-0.16436 0.03913,-0.3522 0.258284,-1.01749 0.242631,-1.55754 -0.0078,-0.54787 -0.320899,-0.54787 -0.34438,0 -0.798335,0.14088 -0.446128,0.13305 -0.923563,0.36786 -0.469608,0.22697 -0.923563,0.53222 -0.446128,0.30525 -0.798334,0.6418 -0.680933,0.6418 -1.260116,1.40882 -0.571357,0.76703 -0.994005,1.58885 -0.414821,0.81398 -0.649625,1.6358 -0.234804,0.82181 -0.234804,1.58101 0,0.21915 0.03913,0.49309 0.03913,0.26611 0.133056,0.54788 0.101748,0.27394 0.273938,0.53222 0.17219,0.25829 0.430474,0.46178 0.266112,0.2035 0.633972,0.32873 0.36786,0.12523 0.853122,0.12523 0.500915,0 1.064445,-0.13306 0.563531,-0.13305 1.134887,-0.3522 0.571357,-0.22698 1.127061,-0.5244 0.555703,-0.29742 1.048792,-0.62614 0.453955,-0.29742 0.712239,-0.46961 0.258285,-0.17219 0.328726,-0.18002 h 0.01565 q 0.07044,0 0.125229,0.0548 0.06261,0.047 0.09392,0.1174 0.03913,0.0704 0.05479,0.14871 0.02348,0.0704 0.02348,0.12523 0,0.1174 -0.101748,0.28176 -0.101749,0.15654 -0.250458,0.32873 -0.148709,0.17219 -0.328726,0.33655 -0.180016,0.15654 -0.328726,0.27394 -0.493089,0.37569 -1.10358,0.72007 -0.61049,0.33655 -1.267942,0.59483 -0.657452,0.25829 -1.322731,0.407 -0.665278,0.15653 -1.267942,0.15653 -0.180017,0 -0.508743,-0.0548 -0.328726,-0.0548 -0.720066,-0.2035 -0.39134,-0.14088 -0.806161,-0.39917 -0.406994,-0.25046 -0.743547,-0.6418 -0.328726,-0.39916 -0.54005,-0.95487 -0.211323,-0.56353 -0.211323,-1.3149 0,-1.70624 0.806161,-3.38118 0.813988,-1.68276 2.301081,-3.24813 0.422648,-0.44612 0.970524,-0.89225 0.547877,-0.45396 1.150541,-0.81399 0.610491,-0.36786 1.220982,-0.59484 0.618317,-0.22697 1.166194,-0.22697 0.516569,0 0.876602,0.19567 0.36786,0.18784 0.602664,0.4696 0.234805,0.28177 0.34438,0.6105 0.109575,0.32089 0.109575,0.58701 z"
       style="text-align:center;text-anchor:middle;stroke-width:0.40073"
       id="path91" />
    <path
       d="m 110.2849,162.392 q 0.0157,0.28176 -0.047,0.70441 -0.0548,0.41482 -0.15654,0.95487 -0.0939,0.53222 -0.21915,1.15837 -0.12523,0.61831 -0.25046,1.30707 -0.1174,0.68094 -0.21915,1.40883 -0.10175,0.72007 -0.15653,1.44796 -0.008,0.0548 -0.0313,0.31307 -0.0157,0.25829 -0.047,0.6418 -0.0235,0.37569 -0.0548,0.84529 -0.0313,0.46179 -0.0548,0.93922 -0.0235,0.47744 -0.0391,0.93922 -0.008,0.45395 0.008,0.80616 0.008,0.2035 -0.10174,0.39134 -0.10175,0.18784 -0.25829,0.33655 -0.14871,0.15654 -0.31307,0.24263 -0.15654,0.0939 -0.26611,0.0939 -0.0939,0 -0.21133,-0.047 -0.1174,-0.0391 -0.22697,-0.12523 -0.10175,-0.0783 -0.18002,-0.20349 -0.0704,-0.13306 -0.0861,-0.29742 -0.008,-0.12523 0.0235,-0.43048 0.0313,-0.31307 0.0861,-0.72789 0.0548,-0.41482 0.1174,-0.88443 0.0704,-0.47743 0.1174,-0.92356 0.0548,-0.44613 0.0783,-0.82964 0.0235,-0.38352 0.008,-0.61832 -0.0156,-0.18784 -0.14871,-0.28177 -0.13306,-0.10174 -0.3209,-0.10174 -0.25046,0 -0.66528,0.0313 -0.40699,0.0313 -0.85312,0.0704 -0.4383,0.0313 -0.85312,0.0626 -0.41482,0.0235 -0.68093,0.0235 -0.0548,0 -0.29742,0.0156 -0.24263,0.008 -0.57919,0.0313 -0.33655,0.0235 -0.71224,0.0548 -0.37568,0.0235 -0.71223,0.0548 -0.32873,0.0313 -0.57136,0.0704 -0.23481,0.0313 -0.28177,0.0548 -0.047,0.0313 -0.10175,0.19567 -0.047,0.15654 -0.0939,0.39135 -0.047,0.22697 -0.0939,0.51656 -0.0391,0.28177 -0.0783,0.56353 -0.0313,0.27394 -0.0548,0.53223 -0.0235,0.25046 -0.0313,0.42265 -0.0157,0.46178 -0.0313,0.91573 -0.0156,0.44613 -0.0861,0.79834 -0.0704,0.3522 -0.22698,0.57135 -0.14871,0.21915 -0.430475,0.21915 -0.101749,0 -0.250458,-0.10957 -0.14871,-0.10175 -0.289592,-0.25829 -0.133056,-0.15653 -0.234804,-0.32872 -0.101749,-0.17219 -0.109576,-0.31307 -0.01565,-0.14871 0.01565,-0.34438 0.03131,-0.19567 0.07827,-0.39917 0.04696,-0.2035 0.09392,-0.39134 0.04696,-0.18785 0.07044,-0.3209 0.109575,-0.50874 0.219151,-1.1662 0.117402,-0.66527 0.226977,-1.42447 0.109575,-0.76703 0.219151,-1.6045 0.109571,-0.83747 0.211321,-1.69842 0.10175,-0.86877 0.19567,-1.72972 0.0939,-0.86095 0.18002,-1.67494 0.008,-0.0939 0.0626,-0.19567 0.0548,-0.10957 0.14089,-0.18784 0.0939,-0.0861 0.21132,-0.12523 0.12523,-0.047 0.25828,-0.0235 0.37569,0.0704 0.55571,0.25046 0.18001,0.17219 0.21132,0.48526 0.047,0.54005 -0.0548,1.15837 -0.10174,0.61049 -0.24263,1.23663 -0.13305,0.62615 -0.25045,1.23664 -0.10958,0.61049 -0.0861,1.15054 0.008,0.10957 0.10958,0.17219 0.10174,0.0548 0.24263,0.0861 0.14088,0.0313 0.28959,0.0391 0.14871,0.008 0.25828,0.008 0.16437,0 0.62615,-0.0157 0.46961,-0.0156 1.0801,-0.047 0.61831,-0.0391 1.29142,-0.0939 0.68093,-0.0626 1.26794,-0.14088 0.58701,-0.0861 0.99401,-0.19567 0.41482,-0.10958 0.50091,-0.25046 0.0548,-0.0861 0.11741,-0.35221 0.0704,-0.27394 0.14088,-0.68093 0.0783,-0.407 0.14871,-0.91574 0.0704,-0.51657 0.12523,-1.08792 0.0626,-0.57136 0.0939,-1.1662 0.0391,-0.60266 0.0391,-1.18185 0,-0.0704 0.0626,-0.18001 0.0704,-0.10958 0.18001,-0.21133 0.1174,-0.10174 0.25829,-0.17219 0.14871,-0.0783 0.31307,-0.0783 0.10957,0 0.24263,0.0391 0.14088,0.0313 0.26611,0.10175 0.12523,0.0704 0.21133,0.18001 0.0861,0.10958 0.0939,0.26612 z"
       style="text-align:center;text-anchor:middle;stroke-width:0.40073"
       id="path93" />
    <path
       d="m 132.25474,162.68159 q 0,0.0939 -0.0313,0.15653 -0.0313,0.0626 -0.10174,0.15654 -0.0626,0.0939 -0.10958,0.16436 -0.047,0.0704 -0.047,0.13306 0,0.0156 -0.0156,0.0548 -0.008,0.0391 -0.0235,0.1174 -0.0391,0.14088 -0.0704,0.2348 -0.0313,0.0861 -0.0391,0.12523 -0.0783,0.27394 -0.10957,0.53222 -0.0313,0.25829 -0.0313,0.57136 0,0.57919 -0.047,1.17402 -0.0157,0.29742 -0.0548,0.62615 -0.0313,0.3209 -0.0704,0.68093 -0.0391,0.36003 -0.0783,0.68876 -0.0313,0.32872 -0.0704,0.63397 -0.0548,0.54788 -0.0861,1.14271 -0.0235,0.58701 -0.0235,1.22881 0,0.43048 0.0157,1.10358 0.0156,0.66528 0.0313,1.54188 0.0939,0.0939 0.2896,0.23481 0.21915,0.14088 0.31307,0.24263 0.10175,0.0939 0.10175,0.25828 0,0.29742 -0.31308,0.57919 -0.32089,0.28176 -0.61831,0.28176 -0.79051,0 -1.05662,-1.06444 -0.27394,-1.0801 -0.27394,-2.18368 0,-0.35221 0.047,-0.70442 0.047,-0.3522 0.0861,-0.71224 0.0235,-0.25045 0.0704,-0.72006 0.0548,-0.47744 0.13305,-1.18185 0.0783,-0.70441 0.1174,-1.07227 0.0391,-0.37569 0.047,-0.4383 0.008,-0.0548 0.0156,-0.18002 0.0156,-0.12523 0.0391,-0.32873 0.0548,-0.40699 0.0783,-0.70441 0.0235,-0.29742 0.0235,-0.46961 0.008,-0.0548 0.008,-0.10174 0.008,-0.047 0.008,-0.12523 0,-0.0548 -0.0783,-0.2035 -0.13306,0.18002 -0.31307,0.42265 -0.18002,0.24263 -0.407,0.54787 -0.46178,0.61049 -0.75137,1.00966 -0.14871,0.19567 -0.29742,0.39134 -0.14088,0.19567 -0.28959,0.39134 -0.14871,0.19567 -0.34438,0.45396 -0.18785,0.25045 -0.42265,0.57918 -0.50874,0.70441 -1.00966,1.43231 -0.0235,0.0391 -0.0783,0.1174 -0.0548,0.0783 -0.14088,0.2035 -0.17219,0.25828 -0.19567,0.28176 -0.54788,0.72007 -1.00966,0.85312 -0.75137,-0.21915 -1.02531,-0.68876 -0.0704,-0.12523 -0.12523,-0.21915 -0.047,-0.0939 -0.0939,-0.17219 -0.047,-0.0861 -0.0939,-0.16436 -0.047,-0.0861 -0.10175,-0.18002 -0.15654,-0.27393 -0.28176,-0.50091 -0.12523,-0.22698 -0.22698,-0.407 -0.19567,-0.36003 -0.38352,-0.76702 -0.18784,-0.41482 -0.34437,-0.86095 -0.0939,-0.29742 -0.15654,-0.48526 -0.0626,-0.19567 -0.0939,-0.28177 -0.0313,-0.0939 -0.0783,-0.25046 -0.047,-0.15653 -0.10958,-0.37568 -0.0626,-0.21915 -0.14088,-0.44613 -0.0704,-0.22698 -0.14871,-0.46178 -0.15653,-0.49309 -0.17219,-0.53223 -0.0548,0.21915 -0.15653,0.55571 -0.0939,0.33655 -0.2035,0.72006 -0.10175,0.37569 -0.2035,0.7592 -0.10175,0.38352 -0.17219,0.68876 -0.0783,0.31308 -0.14871,0.59484 -0.0626,0.27394 -0.12523,0.5244 -0.13305,0.48526 -0.39916,1.52622 -0.17219,0.65746 -0.17219,1.29925 0,0.13306 0.0235,0.36004 0.0235,0.21915 0.0783,0.54005 0.0548,0.31307 0.0783,0.56353 0.0235,0.25045 0.0235,0.4383 0,0.20349 -0.21132,0.50874 -0.21132,0.29742 -0.41482,0.29742 -0.0704,0 -0.21132,-0.0156 -0.14089,-0.0157 -0.21915,-0.0157 -0.43831,0 -0.63398,-0.52439 -0.19567,-0.51657 -0.19567,-1.0801 0,-0.15654 0.0783,-0.46179 0.0391,-0.15653 0.0939,-0.37568 0.0548,-0.22698 0.12523,-0.50092 0.0783,-0.27394 0.1174,-0.43047 0.0391,-0.15654 0.047,-0.18785 0.17219,-0.66527 0.31307,-1.18967 0.14088,-0.53222 0.25046,-0.93922 0.10957,-0.40699 0.22697,-0.84529 0.11741,-0.44613 0.25046,-0.93922 0.15654,-0.56353 0.26611,-0.94704 0.1174,-0.39134 0.18785,-0.76703 0.0626,-0.43047 0.0939,-0.57918 0.0391,-0.19567 0.10957,-0.39917 0.0704,-0.2035 0.15654,-0.40699 0.17219,-0.42265 0.4383,-0.42265 0.57918,0 0.92356,0.10957 0.33656,0.10175 0.56353,0.50875 0.10958,0.18001 0.18785,0.36786 0.0783,0.18001 0.13305,0.37568 0.0548,0.18785 0.1174,0.4383 0.0626,0.24263 0.12523,0.55571 0.0313,0.16436 0.0939,0.3209 0.0626,0.15653 0.13306,0.3522 0.60266,1.8393 1.80799,3.65512 0.0391,-0.0391 0.25046,-0.18784 0.10175,-0.0783 0.17219,-0.14089 0.0783,-0.0626 0.12523,-0.12522 0.10957,-0.13306 0.22698,-0.29742 0.1174,-0.17219 0.22697,-0.37569 0.23481,-0.40699 0.43831,-0.7592 0.21132,-0.35221 0.4696,-0.63397 0.12523,-0.13306 0.2896,-0.33655 0.17219,-0.21133 0.39134,-0.49309 0.21915,-0.28177 0.38351,-0.49309 0.17219,-0.21133 0.28176,-0.34438 0.13306,-0.14871 0.24264,-0.28959 0.1174,-0.14089 0.21915,-0.27394 0.10174,-0.13306 0.22697,-0.30525 0.13306,-0.17219 0.2896,-0.38351 0.0704,-0.0861 0.22697,-0.27394 0.0783,-0.0939 0.13306,-0.16436 0.0626,-0.0783 0.10175,-0.13306 0.14088,-0.19567 0.30524,-0.44612 0.17219,-0.25046 0.36786,-0.57919 0.2035,-0.32872 0.36004,-0.56353 0.15653,-0.24263 0.26611,-0.39917 0.047,-0.0704 0.16436,-0.0704 0.10958,-0.008 0.28959,0.0626 0.18002,0.0704 0.34438,0.18001 0.17219,0.10175 0.28959,0.21915 0.11741,0.11741 0.10175,0.21133 z"
       style="text-align:center;text-anchor:middle;stroke-width:0.40073"
       id="path95" />
    <path
       d="m 145.73251,163.41731 q 0,0.0704 -0.0391,0.17219 -0.0313,0.10175 -0.0861,0.21132 -0.047,0.10175 -0.1174,0.19567 -0.0626,0.0861 -0.13306,0.1174 -0.21915,0.10175 -0.39916,0.15654 -0.17219,0.047 -0.41483,0.0939 -0.74354,0.14088 -1.45578,0.24263 -0.70441,0.0939 -1.33839,0.15654 -0.62614,0.0548 -1.15054,0.0783 -0.52439,0.0235 -0.89225,0.0235 -0.2035,0 -0.36004,0 -0.1487,0 -0.28959,0.008 -0.14088,0 -0.27394,0.008 -0.13305,0 -0.28176,0 -0.35221,0 -0.61049,-0.008 -0.25046,-0.008 -0.43048,-0.0235 -0.1174,0.27394 -0.16436,0.67311 -0.047,0.39917 -0.0704,0.82964 -0.0235,0.42265 -0.0391,0.82964 -0.008,0.407 -0.047,0.71224 0.15653,0.10958 0.26611,0.17219 0.1174,0.0548 0.22697,0.0861 0.11741,0.0235 0.24264,0.0313 0.12522,0 0.30524,0 0.19567,0 0.43047,0 0.24264,0 0.47744,-0.008 0.24263,-0.0157 0.46961,-0.0313 0.22698,-0.0235 0.40699,-0.0704 0.30525,-0.0783 0.54005,-0.0861 0.23481,-0.008 0.45396,-0.008 0.22697,0 0.45395,-0.0235 0.22698,-0.0313 0.50874,-0.14089 0.2035,-0.0783 0.36786,-0.14871 0.16437,-0.0704 0.31308,-0.1174 0.14871,-0.047 0.28176,-0.0704 0.14088,-0.0313 0.29742,-0.0313 0.12523,0 0.21132,0.0939 0.0861,0.0861 0.13306,0.22697 0.047,0.13306 0.0626,0.30525 0.0235,0.16436 0.0235,0.3209 0,0.17219 -0.12522,0.28959 -0.12523,0.1174 -0.29742,0.19567 -0.16437,0.0783 -0.33656,0.12523 -0.17219,0.047 -0.27393,0.0704 -0.18002,0.0391 -0.47744,0.0626 -0.28959,0.0235 -0.61049,0.047 -0.3209,0.0157 -0.62614,0.0313 -0.29742,0.008 -0.49309,0.0313 -0.54005,0.0626 -1.12706,0.0939 -0.58701,0.0235 -1.18968,0.0235 -0.30524,0 -0.52439,0.0391 -0.21133,0.0391 -0.47744,0.1174 -0.0548,0.0156 -0.1174,0.21132 -0.0626,0.18784 -0.13306,0.47744 -0.0704,0.28959 -0.14871,0.63397 -0.0704,0.34438 -0.14088,0.65745 -0.10957,0.47743 -0.16436,0.86878 -0.047,0.39134 -0.0626,0.5557 0.047,0.047 0.11741,0.10175 0.0704,0.0548 0.15653,0.0548 0.2035,0 0.48526,0 0.2896,-0.008 0.59484,-0.0156 0.30525,-0.008 0.59484,-0.0156 0.28959,-0.0157 0.50091,-0.0313 0.51657,-0.047 1.0801,-0.0939 0.56353,-0.0548 1.09576,-0.1174 0.53222,-0.0626 1.00183,-0.13306 0.47743,-0.0783 0.82181,-0.17219 -0.008,0 0.10175,-0.0313 0.1174,-0.0313 0.29742,-0.0783 0.18002,-0.0548 0.39134,-0.10958 0.21132,-0.0626 0.39134,-0.10957 0.18002,-0.047 0.29742,-0.0783 0.12523,-0.0391 0.1174,-0.0391 0.1174,0 0.22698,0.0626 0.10957,0.0626 0.19567,0.17219 0.0861,0.10175 0.13305,0.24263 0.0548,0.14088 0.0548,0.30524 0,0.0626 -0.0626,0.18002 -0.0626,0.10958 -0.17219,0.22698 -0.10958,0.1174 -0.25829,0.21915 -0.14088,0.10175 -0.31307,0.13305 -0.39134,0.0705 -0.74355,0.13306 -0.34438,0.0548 -0.71224,0.10175 -0.36003,0.047 -0.76702,0.0939 -0.407,0.0391 -0.90791,0.0861 -0.60267,0.0626 -1.21316,0.13306 -0.60266,0.0626 -1.13488,0.13306 -0.5244,0.0704 -0.93922,0.13305 -0.407,0.0548 -0.60267,0.0939 -0.18001,0.0391 -0.39916,0.0939 -0.21915,0.0626 -0.4383,0.1174 -0.21133,0.0548 -0.39917,0.0939 -0.18784,0.047 -0.30525,0.047 -0.21132,0 -0.37568,-0.0626 -0.16437,-0.0548 -0.27394,-0.2035 -0.10958,-0.14871 -0.16436,-0.39917 -0.0548,-0.25046 -0.0548,-0.63397 0,-0.33655 0.0939,-0.74355 0.0939,-0.41482 0.22698,-1.00965 0.0861,-0.48527 0.19567,-0.9627 0.10957,-0.48526 0.20349,-0.9627 0.10175,-0.48526 0.16437,-0.9627 0.0704,-0.48526 0.0783,-0.97835 0.008,-0.3522 0.047,-0.71224 0.047,-0.36003 0.0861,-0.72789 0.047,-0.36786 0.0783,-0.73572 0.0391,-0.36786 0.0391,-0.72007 0,-0.0626 -0.0156,-0.17219 -0.0156,-0.10957 -0.0156,-0.16436 0,-0.33655 0.24263,-0.74355 0.0626,-0.10174 0.20349,-0.21132 0.14871,-0.10957 0.3209,-0.19567 0.18002,-0.0939 0.35221,-0.14871 0.17219,-0.0548 0.29742,-0.0548 0.0783,0 0.26611,0.0313 0.19567,0.0313 0.40699,0.0783 0.21133,0.0391 0.39917,0.0704 0.19567,0.0313 0.27394,0.0313 0.13305,0 0.35221,0.008 0.22697,0 0.48526,0.008 0.26611,0 0.5557,0 0.28959,0 0.54788,-0.0156 0.59483,-0.0313 1.12706,-0.0704 0.54005,-0.0391 1.12706,-0.14089 0.3522,-0.0548 0.64962,-0.14871 0.29742,-0.0939 0.57136,-0.17219 0.27394,-0.0861 0.54005,-0.1487 0.27394,-0.0626 0.5557,-0.0626 0.10175,0 0.2035,0.0548 0.10175,0.047 0.18002,0.13305 0.0861,0.0783 0.13305,0.18785 0.0548,0.10957 0.0548,0.21915 z"
       style="text-align:center;text-anchor:middle;stroke-width:0.40073"
       id="path97" />
  </g>
  <g
     aria-label="TOUCH ME"
     id="text50-6"
     style="font-size:16.0293px;line-height:1.25;font-family:'Segoe Script';-inkscape-font-specification:'Segoe Script';text-align:center;text-anchor:middle;fill:#ffffff;stroke-width:0.40073">
    <path
       d="m 219.7803,161.40878 q 0,0.12523 -0.0783,0.25046 -0.0704,0.12523 -0.18002,0.23481 -0.10957,0.10957 -0.24263,0.19567 -0.12523,0.0861 -0.24263,0.12523 -0.43047,0.1487 -0.88443,0.2348 -0.44612,0.0783 -0.98617,0.14871 -0.53223,0.0626 -1.18185,0.14871 -0.6418,0.0861 -1.46362,0.24263 -0.0783,0.3209 -0.14088,0.6731 -0.0626,0.34438 -0.12523,0.70442 -0.0548,0.3522 -0.10957,0.70441 -0.047,0.35221 -0.10175,0.68093 -0.0783,0.44613 -0.15654,0.95487 -0.0704,0.50092 -0.13305,1.00183 -0.0626,0.49309 -0.10175,0.94705 -0.0391,0.45395 -0.0391,0.78268 0,0.3522 0.0157,0.70441 0.0156,0.35221 0.0156,0.70441 0,0.39917 -0.047,0.77486 -0.0391,0.37568 -0.14871,0.76702 -0.15653,0.0391 -0.31307,0.0548 -0.15654,0.0235 -0.3209,0.0235 -0.39134,0 -0.63397,-0.17219 -0.2348,-0.17219 -0.2348,-0.57918 0,-0.54005 0.0783,-1.08793 0.0783,-0.54787 0.16437,-1.0801 0.15653,-1.08792 0.3522,-2.19933 0.2035,-1.11923 0.35221,-2.20716 0.0626,-0.4383 0.10957,-0.91574 0.047,-0.47743 0.10958,-0.91573 -0.46178,0.0156 -0.97835,0.0548 -0.51657,0.0313 -1.04879,0.0704 -0.5244,0.0391 -1.04097,0.0704 -0.50874,0.0313 -0.95487,0.0313 -0.74355,0 -1.15837,-0.17219 -0.40699,-0.18002 -0.40699,-0.63398 0,-0.0704 0.0548,-0.20349 0.0626,-0.14088 0.14871,-0.27394 0.0861,-0.13306 0.19567,-0.22698 0.10957,-0.10175 0.21915,-0.10175 0.21915,0 0.42264,0.0939 0.2035,0.0861 0.42265,0.14088 0.10958,0.0313 0.21915,0.0391 0.1174,0.008 0.24263,0.008 0.16437,0 0.36786,-0.008 0.21133,-0.008 0.50875,-0.008 0.21915,0 0.54787,-0.0235 0.33656,-0.0313 0.72007,-0.0704 0.38351,-0.0391 0.79051,-0.0861 0.41482,-0.0548 0.78268,-0.10175 0.36786,-0.047 0.66528,-0.0861 0.30524,-0.0391 0.47743,-0.0626 1.02531,-0.13306 1.97236,-0.30524 0.94704,-0.17219 1.76103,-0.32873 0.36003,-0.0626 0.61832,-0.15654 0.25828,-0.0939 0.48526,-0.15653 0.14871,0 0.26611,0.0235 0.12523,0.0156 0.2035,0.0861 0.0783,0.0626 0.1174,0.18002 0.047,0.1174 0.047,0.30524 z"
       style="text-align:center;text-anchor:middle;stroke-width:0.40073"
       id="path70" />
    <path
       d="m 231.23092,164.11686 q 0,0.8766 -0.21133,1.67494 -0.21132,0.7905 -0.58701,1.49492 -0.36786,0.70441 -0.86877,1.32273 -0.49309,0.61831 -1.06445,1.15054 -0.57135,0.52439 -1.18967,0.97052 -0.61832,0.4383 -1.22098,0.78268 -0.2035,0.1174 -0.47744,0.24263 -0.26611,0.12523 -0.57136,0.24263 -0.29742,0.11741 -0.62614,0.22698 -0.32873,0.10958 -0.6418,0.18784 -0.30524,0.0783 -0.59484,0.12523 -0.28176,0.047 -0.50874,0.047 -0.64962,0 -1.18185,-0.29741 -0.52439,-0.2896 -0.90008,-0.79051 -0.36786,-0.50092 -0.57136,-1.1662 -0.19567,-0.66527 -0.19567,-1.40099 0,-0.39134 0.0391,-0.7279 0.047,-0.33655 0.12523,-0.64962 0.0783,-0.3209 0.18784,-0.6418 0.1174,-0.3209 0.26611,-0.67311 0.17219,-0.42264 0.46178,-0.89225 0.28959,-0.46961 0.64963,-0.93922 0.36003,-0.47743 0.77485,-0.92356 0.42265,-0.45396 0.8453,-0.8453 0.43047,-0.39916 0.84529,-0.71224 0.42265,-0.31307 0.79051,-0.50091 0.30524,-0.15654 0.61049,-0.25829 0.31307,-0.10175 0.54005,-0.10175 0.008,0 0.0626,-0.0235 0.0548,-0.0235 0.11741,-0.047 0.0626,-0.0313 0.10957,-0.0548 0.0548,-0.0235 0.0704,-0.0235 0.1174,-0.16437 0.28959,-0.27394 0.18002,-0.1174 0.37569,-0.18002 0.2035,-0.0704 0.407,-0.0939 0.21132,-0.0313 0.39916,-0.0313 0.50092,0 0.9627,0.16436 0.46961,0.15654 0.86878,0.46179 0.40699,0.29741 0.72789,0.72789 0.32872,0.42265 0.5557,0.95487 0.14871,0.34438 0.23481,0.71224 0.0939,0.36003 0.0939,0.7592 z m -3.40466,-2.4811 q -0.11741,0 -0.19567,0.0704 -0.0704,0.0626 -0.12523,0.15654 -0.0548,0.0939 -0.10175,0.2035 -0.047,0.10174 -0.10958,0.18001 -0.0783,0.2035 -0.25828,0.37569 -0.18002,0.16436 -0.38351,0.16436 -0.15654,0 -0.24264,-0.0313 -0.0861,-0.0313 -0.16436,-0.0704 -0.0704,-0.047 -0.16436,-0.0783 -0.0939,-0.0313 -0.25829,-0.0313 -0.34438,0 -0.76702,0.22698 -0.41482,0.22697 -0.85313,0.60266 -0.43047,0.36786 -0.85312,0.83747 -0.42264,0.46961 -0.7905,0.95487 -0.36004,0.47743 -0.63398,0.93139 -0.27393,0.45395 -0.40699,0.79051 -0.17219,0.45395 -0.28959,0.94704 -0.1174,0.48526 -0.1174,0.98618 0,0.39916 0.14088,0.79833 0.14871,0.39917 0.39134,0.71224 0.25046,0.31307 0.57136,0.50874 0.32089,0.19567 0.6731,0.19567 0.49309,0 1.05662,-0.14871 0.57136,-0.15653 1.15837,-0.42264 0.59484,-0.26611 1.18185,-0.62615 0.58701,-0.36786 1.1114,-0.78268 0.53223,-0.41482 0.97835,-0.86877 0.44613,-0.45396 0.75138,-0.90791 0.12523,-0.18785 0.28959,-0.54005 0.16436,-0.36004 0.31307,-0.7592 0.14871,-0.407 0.25046,-0.79051 0.10175,-0.38351 0.10175,-0.61832 0,-0.52439 -0.17219,-1.05662 -0.17219,-0.53222 -0.47744,-0.95487 -0.29742,-0.42265 -0.71224,-0.68876 -0.41482,-0.26611 -0.89225,-0.26611 z"
       style="text-align:center;text-anchor:middle;stroke-width:0.40073"
       id="path72" />
    <path
       d="m 242.73632,168.41378 q -0.0861,0.46178 -0.25045,0.8766 -0.15654,0.40699 -0.407,0.79833 -0.25046,0.38352 -0.60266,0.75138 -0.35221,0.36003 -0.82182,0.71224 -0.2348,0.18001 -0.61831,0.33655 -0.37569,0.14871 -0.80617,0.25828 -0.42264,0.10175 -0.86094,0.15654 -0.43831,0.0626 -0.79834,0.0626 -0.32872,0 -0.7592,-0.0939 -0.42265,-0.0939 -0.84529,-0.24263 -0.41483,-0.15653 -0.78269,-0.34438 -0.36003,-0.18784 -0.5557,-0.36786 -0.39134,-0.36786 -0.6731,-0.82964 -0.27394,-0.46178 -0.45396,-0.97835 -0.18002,-0.51657 -0.26611,-1.05662 -0.0783,-0.54788 -0.0783,-1.0801 0,-0.44613 0.0704,-0.98618 0.0704,-0.54787 0.17219,-1.10358 0.10175,-0.56353 0.2035,-1.10358 0.10958,-0.54787 0.17219,-0.994 0.0235,-0.14088 0.0704,-0.46178 0.0548,-0.32873 0.10958,-0.68093 0.0626,-0.36004 0.1174,-0.68094 0.0626,-0.32872 0.10175,-0.46961 0.0939,-0.31307 0.30524,-0.51656 0.21133,-0.2035 0.49309,-0.2035 0.10958,0 0.21915,0.1174 0.10958,0.1174 0.19567,0.27394 0.0861,0.15654 0.14088,0.31307 0.0548,0.15654 0.0548,0.24263 0,0.047 -0.0391,0.2035 -0.0313,0.14871 -0.0861,0.35221 -0.0548,0.20349 -0.1174,0.43047 -0.0626,0.22698 -0.12523,0.43047 -0.0548,0.2035 -0.0939,0.35221 -0.0391,0.14088 -0.047,0.18784 -0.0313,0.17219 -0.0861,0.49309 -0.047,0.3209 -0.10957,0.72007 -0.0626,0.39917 -0.12523,0.83747 -0.0626,0.43047 -0.1174,0.84529 -0.047,0.407 -0.0783,0.7592 -0.0313,0.34438 -0.0313,0.55571 0,1.20532 0.43048,2.26194 0.10957,0.26611 0.41482,0.54005 0.31307,0.26611 0.69658,0.48527 0.38352,0.21132 0.76703,0.34437 0.38351,0.13306 0.63397,0.13306 0.66528,0 1.1975,-0.0548 0.54005,-0.0626 0.97053,-0.2348 0.43047,-0.18002 0.75137,-0.49309 0.32873,-0.31307 0.57919,-0.82182 0.19567,-0.40699 0.29741,-0.81398 0.10958,-0.407 0.16437,-0.79834 0.0548,-0.39134 0.0783,-0.7592 0.0235,-0.37568 0.0626,-0.70441 0.0704,-0.60266 0.10175,-1.22881 0.0313,-0.63397 0.0626,-1.22881 0.0313,-0.60266 0.0861,-1.13488 0.0548,-0.53223 0.16436,-0.94705 0.17219,-0.6418 0.38351,-0.90008 0.2035,-0.27394 0.57136,-0.27394 0.15654,0 0.25829,0.0704 0.10174,0.0704 0.16436,0.19567 0.0626,0.1174 0.0861,0.27394 0.0235,0.15654 0.0235,0.32873 0,0.30524 -0.0548,0.72789 -0.047,0.41482 -0.11741,0.85312 -0.0626,0.43048 -0.14088,0.83747 -0.0704,0.39917 -0.1174,0.66528 -0.0626,0.38351 -0.0783,0.81399 -0.008,0.42264 -0.0235,0.90008 -0.0156,0.46961 -0.0548,0.994 -0.0391,0.5244 -0.14871,1.09576 z"
       style="text-align:center;text-anchor:middle;stroke-width:0.40073"
       id="path74" />
    <path
       d="m 254.69568,162.06624 q 0,0.13305 0,0.34438 0.008,0.21132 0,0.4383 -0.008,0.22697 -0.0391,0.43047 -0.0313,0.2035 -0.10958,0.3209 -0.0783,0.1174 -0.19567,0.2348 -0.1174,0.11741 -0.25045,0.21133 -0.13306,0.0939 -0.26612,0.14871 -0.12522,0.0548 -0.22697,0.0548 -0.10958,0 -0.2035,-0.0626 -0.0939,-0.0626 -0.15654,-0.17219 -0.0548,-0.1174 -0.0704,-0.27394 -0.008,-0.16436 0.0391,-0.3522 0.25828,-1.01749 0.24263,-1.55754 -0.008,-0.54787 -0.3209,-0.54787 -0.34438,0 -0.79834,0.14088 -0.44612,0.13305 -0.92356,0.36786 -0.46961,0.22698 -0.92356,0.53222 -0.44613,0.30525 -0.79834,0.6418 -0.68093,0.6418 -1.26011,1.40882 -0.57136,0.76703 -0.99401,1.58885 -0.41482,0.81398 -0.64962,1.6358 -0.23481,0.82181 -0.23481,1.58101 0,0.21915 0.0391,0.49309 0.0391,0.26611 0.13305,0.54788 0.10175,0.27394 0.27394,0.53222 0.17219,0.25829 0.43048,0.46178 0.26611,0.2035 0.63397,0.32873 0.36786,0.12523 0.85312,0.12523 0.50092,0 1.06445,-0.13306 0.56353,-0.13305 1.13488,-0.3522 0.57136,-0.22698 1.12706,-0.5244 0.55571,-0.29742 1.0488,-0.62614 0.45395,-0.29742 0.71223,-0.46961 0.25829,-0.17219 0.32873,-0.18002 h 0.0157 q 0.0704,0 0.12523,0.0548 0.0626,0.047 0.0939,0.1174 0.0391,0.0704 0.0548,0.14871 0.0235,0.0704 0.0235,0.12523 0,0.1174 -0.10175,0.28176 -0.10174,0.15654 -0.25045,0.32873 -0.14871,0.17219 -0.32873,0.33655 -0.18002,0.15654 -0.32873,0.27394 -0.49308,0.37569 -1.10358,0.72007 -0.61049,0.33655 -1.26794,0.59483 -0.65745,0.25829 -1.32273,0.407 -0.66528,0.15653 -1.26794,0.15653 -0.18002,0 -0.50874,-0.0548 -0.32873,-0.0548 -0.72007,-0.2035 -0.39134,-0.14088 -0.80616,-0.39917 -0.40699,-0.25046 -0.74355,-0.6418 -0.32872,-0.39916 -0.54005,-0.95487 -0.21132,-0.56353 -0.21132,-1.3149 0,-1.70624 0.80616,-3.38118 0.81399,-1.68276 2.30108,-3.24813 0.42265,-0.44612 0.97053,-0.89225 0.54787,-0.45396 1.15054,-0.81399 0.61049,-0.36786 1.22098,-0.59484 0.61832,-0.22697 1.16619,-0.22697 0.51657,0 0.8766,0.19567 0.36786,0.18784 0.60267,0.4696 0.2348,0.28177 0.34438,0.6105 0.10957,0.32089 0.10957,0.58701 z"
       style="text-align:center;text-anchor:middle;stroke-width:0.40073"
       id="path76" />
    <path
       d="m 268.03256,160.05475 q 0.0157,0.28176 -0.047,0.70441 -0.0548,0.41482 -0.15653,0.95487 -0.0939,0.53222 -0.21915,1.15837 -0.12523,0.61831 -0.25046,1.30707 -0.1174,0.68094 -0.21915,1.40883 -0.10175,0.72007 -0.15654,1.44796 -0.008,0.0548 -0.0313,0.31307 -0.0156,0.25829 -0.047,0.6418 -0.0235,0.37569 -0.0548,0.84529 -0.0313,0.46179 -0.0548,0.93922 -0.0235,0.47744 -0.0391,0.93922 -0.008,0.45395 0.008,0.80616 0.008,0.2035 -0.10175,0.39134 -0.10175,0.18784 -0.25828,0.33655 -0.14871,0.15654 -0.31308,0.24263 -0.15653,0.0939 -0.26611,0.0939 -0.0939,0 -0.21132,-0.047 -0.1174,-0.0391 -0.22698,-0.12523 -0.10175,-0.0783 -0.18001,-0.20349 -0.0704,-0.13306 -0.0861,-0.29742 -0.008,-0.12523 0.0235,-0.43048 0.0313,-0.31307 0.0861,-0.72789 0.0548,-0.41482 0.1174,-0.88443 0.0704,-0.47743 0.1174,-0.92356 0.0548,-0.44613 0.0783,-0.82964 0.0235,-0.38352 0.008,-0.61832 -0.0157,-0.18784 -0.14871,-0.28177 -0.13306,-0.10174 -0.3209,-0.10174 -0.25046,0 -0.66528,0.0313 -0.407,0.0313 -0.85312,0.0704 -0.43831,0.0313 -0.85313,0.0626 -0.41482,0.0235 -0.68093,0.0235 -0.0548,0 -0.29742,0.0156 -0.24263,0.008 -0.57918,0.0313 -0.33655,0.0235 -0.71224,0.0548 -0.37569,0.0235 -0.71224,0.0548 -0.32873,0.0313 -0.57136,0.0704 -0.2348,0.0313 -0.28176,0.0548 -0.047,0.0313 -0.10175,0.19568 -0.047,0.15653 -0.0939,0.39134 -0.047,0.22697 -0.0939,0.51656 -0.0391,0.28177 -0.0783,0.56353 -0.0313,0.27394 -0.0548,0.53223 -0.0235,0.25046 -0.0313,0.42265 -0.0156,0.46178 -0.0313,0.91573 -0.0157,0.44613 -0.0861,0.79834 -0.0704,0.3522 -0.22698,0.57135 -0.1487,0.21915 -0.43047,0.21915 -0.10175,0 -0.25046,-0.10957 -0.14871,-0.10175 -0.28959,-0.25829 -0.13306,-0.15653 -0.2348,-0.32872 -0.10175,-0.17219 -0.10958,-0.31307 -0.0156,-0.14871 0.0156,-0.34438 0.0313,-0.19567 0.0783,-0.39917 0.047,-0.2035 0.0939,-0.39134 0.047,-0.18785 0.0704,-0.3209 0.10957,-0.50874 0.21915,-1.16619 0.1174,-0.66528 0.22697,-1.42448 0.10958,-0.76703 0.21915,-1.6045 0.10958,-0.83747 0.21133,-1.69842 0.10175,-0.86877 0.19567,-1.72972 0.0939,-0.86095 0.18001,-1.67494 0.008,-0.0939 0.0626,-0.19567 0.0548,-0.10957 0.14088,-0.18784 0.0939,-0.0861 0.21133,-0.12523 0.12522,-0.047 0.25828,-0.0235 0.37569,0.0704 0.5557,0.25046 0.18002,0.17219 0.21133,0.48526 0.047,0.54005 -0.0548,1.15837 -0.10175,0.61049 -0.24263,1.23663 -0.13306,0.62615 -0.25046,1.23664 -0.10957,0.61049 -0.0861,1.15054 0.008,0.10957 0.10957,0.17219 0.10175,0.0548 0.24263,0.0861 0.14088,0.0313 0.28959,0.0391 0.14871,0.008 0.25829,0.008 0.16436,0 0.62614,-0.0156 0.46961,-0.0157 1.0801,-0.047 0.61832,-0.0391 1.29143,-0.0939 0.68093,-0.0626 1.26794,-0.14088 0.58701,-0.0861 0.994,-0.19567 0.41482,-0.10958 0.50092,-0.25046 0.0548,-0.0861 0.1174,-0.35221 0.0704,-0.27394 0.14088,-0.68093 0.0783,-0.407 0.14871,-0.91574 0.0704,-0.51657 0.12523,-1.08792 0.0626,-0.57136 0.0939,-1.1662 0.0391,-0.60266 0.0391,-1.18185 0,-0.0704 0.0626,-0.18001 0.0704,-0.10958 0.18002,-0.21133 0.1174,-0.10174 0.25828,-0.17219 0.14871,-0.0783 0.31307,-0.0783 0.10958,0 0.24264,0.0391 0.14088,0.0313 0.26611,0.10175 0.12523,0.0704 0.21132,0.18002 0.0861,0.10957 0.0939,0.26611 z"
       style="text-align:center;text-anchor:middle;stroke-width:0.40073"
       id="path78" />
    <path
       d="m 290.00241,160.34434 q 0,0.0939 -0.0313,0.15653 -0.0313,0.0626 -0.10175,0.15654 -0.0626,0.0939 -0.10957,0.16436 -0.047,0.0704 -0.047,0.13306 0,0.0157 -0.0157,0.0548 -0.008,0.0391 -0.0235,0.1174 -0.0391,0.14088 -0.0704,0.2348 -0.0313,0.0861 -0.0391,0.12523 -0.0783,0.27394 -0.10958,0.53223 -0.0313,0.25828 -0.0313,0.57135 0,0.57919 -0.047,1.17402 -0.0156,0.29742 -0.0548,0.62615 -0.0313,0.3209 -0.0704,0.68093 -0.0391,0.36003 -0.0783,0.68876 -0.0313,0.32872 -0.0704,0.63397 -0.0548,0.54788 -0.0861,1.14271 -0.0235,0.58701 -0.0235,1.22881 0,0.43048 0.0156,1.10358 0.0157,0.66528 0.0313,1.54188 0.0939,0.0939 0.28959,0.23481 0.21915,0.14088 0.31307,0.24263 0.10175,0.0939 0.10175,0.25828 0,0.29742 -0.31307,0.57919 -0.3209,0.28176 -0.61832,0.28176 -0.7905,0 -1.05662,-1.06444 -0.27393,-1.0801 -0.27393,-2.18368 0,-0.35221 0.047,-0.70442 0.047,-0.3522 0.0861,-0.71223 0.0235,-0.25046 0.0704,-0.72007 0.0548,-0.47744 0.13306,-1.18185 0.0783,-0.70441 0.1174,-1.07227 0.0391,-0.37569 0.047,-0.4383 0.008,-0.0548 0.0156,-0.18002 0.0157,-0.12523 0.0391,-0.32873 0.0548,-0.40699 0.0783,-0.70441 0.0235,-0.29742 0.0235,-0.46961 0.008,-0.0548 0.008,-0.10174 0.008,-0.047 0.008,-0.12523 0,-0.0548 -0.0783,-0.2035 -0.13305,0.18002 -0.31307,0.42265 -0.18002,0.24263 -0.40699,0.54787 -0.46179,0.61049 -0.75138,1.00966 -0.14871,0.19567 -0.29742,0.39134 -0.14088,0.19567 -0.28959,0.39134 -0.14871,0.19567 -0.34438,0.45396 -0.18784,0.25045 -0.42264,0.57918 -0.50875,0.70441 -1.00966,1.43231 -0.0235,0.0391 -0.0783,0.1174 -0.0548,0.0783 -0.14088,0.2035 -0.17219,0.25828 -0.19567,0.28176 -0.54788,0.72007 -1.00966,0.85312 -0.75137,-0.21915 -1.02531,-0.68876 -0.0704,-0.12523 -0.12523,-0.21915 -0.047,-0.0939 -0.0939,-0.17219 -0.047,-0.0861 -0.0939,-0.16436 -0.047,-0.0861 -0.10174,-0.18002 -0.15654,-0.27393 -0.28177,-0.50091 -0.12523,-0.22698 -0.22698,-0.407 -0.19567,-0.36003 -0.38351,-0.76702 -0.18784,-0.41482 -0.34438,-0.86095 -0.0939,-0.29742 -0.15654,-0.48526 -0.0626,-0.19567 -0.0939,-0.28177 -0.0313,-0.0939 -0.0783,-0.25046 -0.047,-0.15653 -0.10957,-0.37568 -0.0626,-0.21915 -0.14088,-0.44613 -0.0704,-0.22698 -0.14871,-0.46178 -0.15654,-0.49309 -0.17219,-0.53223 -0.0548,0.21915 -0.15654,0.55571 -0.0939,0.33655 -0.2035,0.72006 -0.10174,0.37569 -0.20349,0.7592 -0.10175,0.38352 -0.17219,0.68876 -0.0783,0.31308 -0.14871,0.59484 -0.0626,0.27394 -0.12523,0.5244 -0.13306,0.48526 -0.39917,1.52622 -0.17219,0.65746 -0.17219,1.29925 0,0.13306 0.0235,0.36004 0.0235,0.21915 0.0783,0.54005 0.0548,0.31307 0.0783,0.56353 0.0235,0.25045 0.0235,0.4383 0,0.20349 -0.21132,0.50874 -0.21133,0.29742 -0.41482,0.29742 -0.0704,0 -0.21133,-0.0156 -0.14088,-0.0157 -0.21915,-0.0157 -0.4383,0 -0.63397,-0.52439 -0.19567,-0.51657 -0.19567,-1.0801 0,-0.15654 0.0783,-0.46179 0.0391,-0.15653 0.0939,-0.37568 0.0548,-0.22698 0.12523,-0.50092 0.0783,-0.27394 0.1174,-0.43047 0.0391,-0.15654 0.047,-0.18785 0.17219,-0.66527 0.31307,-1.18967 0.14089,-0.53222 0.25046,-0.93922 0.10958,-0.40699 0.22698,-0.84529 0.1174,-0.44613 0.25046,-0.93922 0.15653,-0.56353 0.26611,-0.94704 0.1174,-0.39134 0.18784,-0.76703 0.0626,-0.43047 0.0939,-0.57918 0.0391,-0.19567 0.10958,-0.39917 0.0704,-0.2035 0.15653,-0.40699 0.17219,-0.42265 0.43831,-0.42265 0.57918,0 0.92356,0.10957 0.33655,0.10175 0.56353,0.50875 0.10957,0.18001 0.18784,0.36786 0.0783,0.18001 0.13306,0.37568 0.0548,0.18785 0.1174,0.4383 0.0626,0.24263 0.12523,0.55571 0.0313,0.16436 0.0939,0.3209 0.0626,0.15653 0.13306,0.3522 0.60266,1.8393 1.80799,3.65512 0.0391,-0.0391 0.25046,-0.18784 0.10174,-0.0783 0.17219,-0.14088 0.0783,-0.0626 0.12522,-0.12523 0.10958,-0.13306 0.22698,-0.29742 0.1174,-0.17219 0.22698,-0.37569 0.2348,-0.40699 0.4383,-0.7592 0.21132,-0.35221 0.46961,-0.63397 0.12523,-0.13306 0.28959,-0.33655 0.17219,-0.21133 0.39134,-0.49309 0.21915,-0.28177 0.38352,-0.49309 0.17218,-0.21132 0.28176,-0.34438 0.13306,-0.14871 0.24263,-0.28959 0.1174,-0.14089 0.21915,-0.27394 0.10175,-0.13306 0.22698,-0.30525 0.13305,-0.17219 0.28959,-0.38351 0.0704,-0.0861 0.22698,-0.27394 0.0783,-0.0939 0.13305,-0.16436 0.0626,-0.0783 0.10175,-0.13306 0.14089,-0.19567 0.30525,-0.44612 0.17219,-0.25046 0.36786,-0.57919 0.2035,-0.32872 0.36003,-0.56353 0.15654,-0.24263 0.26611,-0.39917 0.047,-0.0704 0.16437,-0.0704 0.10957,-0.008 0.28959,0.0626 0.18001,0.0704 0.34438,0.18001 0.17219,0.10175 0.28959,0.21915 0.1174,0.11741 0.10175,0.21133 z"
       style="text-align:center;text-anchor:middle;stroke-width:0.40073"
       id="path80" />
    <path
       d="m 303.48017,161.08006 q 0,0.0704 -0.0391,0.17219 -0.0313,0.10175 -0.0861,0.21132 -0.047,0.10175 -0.11741,0.19567 -0.0626,0.0861 -0.13305,0.1174 -0.21915,0.10175 -0.39917,0.15654 -0.17219,0.047 -0.41482,0.0939 -0.74355,0.14088 -1.45579,0.24263 -0.70441,0.0939 -1.33838,0.15654 -0.62614,0.0548 -1.15054,0.0783 -0.5244,0.0235 -0.89226,0.0235 -0.20349,0 -0.36003,0 -0.14871,0 -0.28959,0.008 -0.14088,0 -0.27394,0.008 -0.13306,0 -0.28177,0 -0.3522,0 -0.61049,-0.008 -0.25045,-0.008 -0.43047,-0.0235 -0.1174,0.27394 -0.16436,0.67311 -0.047,0.39917 -0.0704,0.82964 -0.0235,0.42265 -0.0391,0.82964 -0.008,0.407 -0.047,0.71224 0.15654,0.10958 0.26611,0.17219 0.1174,0.0548 0.22698,0.0861 0.1174,0.0235 0.24263,0.0313 0.12523,0 0.30525,0 0.19567,0 0.43047,0 0.24263,0 0.47744,-0.008 0.24263,-0.0157 0.4696,-0.0313 0.22698,-0.0235 0.407,-0.0704 0.30524,-0.0783 0.54005,-0.0861 0.2348,-0.008 0.45395,-0.008 0.22698,0 0.45396,-0.0235 0.22697,-0.0313 0.50874,-0.14089 0.2035,-0.0783 0.36786,-0.14871 0.16436,-0.0704 0.31307,-0.1174 0.14871,-0.047 0.28177,-0.0704 0.14088,-0.0313 0.29742,-0.0313 0.12522,0 0.21132,0.0939 0.0861,0.0861 0.13306,0.22697 0.047,0.13306 0.0626,0.30525 0.0235,0.16436 0.0235,0.3209 0,0.17219 -0.12523,0.28959 -0.12523,0.1174 -0.29742,0.19567 -0.16436,0.0783 -0.33655,0.12523 -0.17219,0.047 -0.27394,0.0704 -0.18002,0.0391 -0.47743,0.0626 -0.2896,0.0235 -0.61049,0.047 -0.3209,0.0156 -0.62615,0.0313 -0.29742,0.008 -0.49309,0.0313 -0.54005,0.0626 -1.12706,0.0939 -0.58701,0.0235 -1.18967,0.0235 -0.30525,0 -0.5244,0.0391 -0.21132,0.0391 -0.47743,0.1174 -0.0548,0.0156 -0.11741,0.21132 -0.0626,0.18784 -0.13305,0.47744 -0.0704,0.28959 -0.14871,0.63397 -0.0704,0.34438 -0.14088,0.65745 -0.10958,0.47744 -0.16437,0.86878 -0.047,0.39134 -0.0626,0.5557 0.047,0.047 0.1174,0.10175 0.0704,0.0548 0.15654,0.0548 0.20349,0 0.48526,0 0.28959,-0.008 0.59484,-0.0156 0.30524,-0.008 0.59483,-0.0157 0.2896,-0.0157 0.50092,-0.0313 0.51657,-0.047 1.0801,-0.0939 0.56353,-0.0548 1.09575,-0.1174 0.53222,-0.0626 1.00183,-0.13306 0.47744,-0.0783 0.82182,-0.17219 -0.008,0 0.10175,-0.0313 0.1174,-0.0313 0.29741,-0.0783 0.18002,-0.0548 0.39135,-0.10958 0.21132,-0.0626 0.39134,-0.10957 0.18001,-0.047 0.29741,-0.0783 0.12523,-0.0391 0.11741,-0.0391 0.1174,0 0.22697,0.0626 0.10958,0.0626 0.19567,0.17219 0.0861,0.10175 0.13306,0.24263 0.0548,0.14088 0.0548,0.30524 0,0.0626 -0.0626,0.18002 -0.0626,0.10958 -0.17219,0.22698 -0.10957,0.1174 -0.25828,0.21915 -0.14088,0.10175 -0.31307,0.13305 -0.39134,0.0704 -0.74355,0.13306 -0.34438,0.0548 -0.71224,0.10175 -0.36003,0.047 -0.76703,0.0939 -0.40699,0.0391 -0.90791,0.0861 -0.60266,0.0626 -1.21315,0.13306 -0.60267,0.0626 -1.13489,0.13306 -0.52439,0.0704 -0.93922,0.13305 -0.40699,0.0548 -0.60266,0.0939 -0.18002,0.0391 -0.39917,0.0939 -0.21915,0.0626 -0.4383,0.1174 -0.21132,0.0548 -0.39917,0.0939 -0.18784,0.047 -0.30524,0.047 -0.21132,0 -0.37569,-0.0626 -0.16436,-0.0548 -0.27394,-0.2035 -0.10957,-0.14871 -0.16436,-0.39917 -0.0548,-0.25046 -0.0548,-0.63397 0,-0.33655 0.0939,-0.74355 0.0939,-0.41482 0.22697,-1.00965 0.0861,-0.48527 0.19567,-0.9627 0.10958,-0.48526 0.2035,-0.9627 0.10175,-0.48526 0.16436,-0.9627 0.0704,-0.48526 0.0783,-0.97835 0.008,-0.3522 0.047,-0.71224 0.047,-0.36003 0.0861,-0.72789 0.047,-0.36786 0.0783,-0.73572 0.0391,-0.36786 0.0391,-0.72007 0,-0.0626 -0.0156,-0.17219 -0.0157,-0.10957 -0.0157,-0.16436 0,-0.33655 0.24263,-0.74355 0.0626,-0.10174 0.2035,-0.21132 0.14871,-0.10957 0.3209,-0.19567 0.18002,-0.0939 0.3522,-0.14871 0.17219,-0.0548 0.29742,-0.0548 0.0783,0 0.26611,0.0313 0.19568,0.0313 0.407,0.0783 0.21132,0.0391 0.39917,0.0704 0.19567,0.0313 0.27393,0.0313 0.13306,0 0.35221,0.008 0.22698,0 0.48526,0.008 0.26611,0 0.55571,0 0.28959,0 0.54787,-0.0156 0.59484,-0.0313 1.12706,-0.0704 0.54005,-0.0391 1.12706,-0.14089 0.35221,-0.0548 0.64963,-0.14871 0.29742,-0.0939 0.57135,-0.17219 0.27394,-0.0861 0.54005,-0.1487 0.27394,-0.0626 0.55571,-0.0626 0.10175,0 0.20349,0.0548 0.10175,0.047 0.18002,0.13305 0.0861,0.0783 0.13306,0.18785 0.0548,0.10957 0.0548,0.21915 z"
       style="text-align:center;text-anchor:middle;stroke-width:0.40073"
       id="path82" />
  </g>
</svg>
